<?xml version="1.0" standalone="no"?>
<!DOCTYPE svg PUBLIC "-//W3C//DTD SVG 20010904//EN"
 "http://www.w3.org/TR/2001/REC-SVG-20010904/DTD/svg10.dtd">
<svg version="1.0" xmlns="http://www.w3.org/2000/svg"
 width="218.000000pt" height="182.000000pt" viewBox="0 0 218.000000 182.000000"
 preserveAspectRatio="xMidYMid meet">

<g transform="translate(0.000000,182.000000) scale(0.100000,-0.100000)"
fill="#000000" stroke="none">
<path d="M1388 1203 l-38 -39 0 -231 c0 -128 -4 -234 -9 -237 -5 -3 -14 1 -21
9 -25 30 -70 11 -70 -29 0 -32 109 -136 142 -136 20 0 29 6 33 23 3 12 4 170
3 350 l-3 328 -37 -38z"/>
<path d="M993 698 c-165 -165 -203 -208 -203 -230 0 -27 23 -48 52 -48 22 0
418 412 418 435 0 26 -18 45 -44 45 -13 0 -95 -75 -223 -202z"/>
</g>
</svg>
