<?xml version="1.0" standalone="no"?>
<!DOCTYPE svg PUBLIC "-//W3C//DTD SVG 20010904//EN"
 "http://www.w3.org/TR/2001/REC-SVG-20010904/DTD/svg10.dtd">
<svg version="1.0" xmlns="http://www.w3.org/2000/svg"
 width="512.000000pt" height="512.000000pt" viewBox="0 0 512.000000 512.000000"
 preserveAspectRatio="xMidYMid meet">

<g transform="translate(0.000000,512.000000) scale(0.100000,-0.100000)"
fill="#000000" stroke="none">
<path d="M838 4246 c-65 -18 -116 -60 -144 -120 -22 -47 -24 -63 -24 -223 l0
-173 -158 0 c-228 0 -298 -27 -348 -134 l-24 -51 0 -1150 c0 -780 4 -1162 11
-1188 13 -49 73 -115 124 -138 38 -18 112 -19 1598 -19 l1557 0 0 -59 c0 -84
11 -108 57 -121 27 -8 251 -10 746 -8 l709 3 19 24 c17 21 19 41 19 212 0 209
-9 266 -52 353 -58 116 -194 223 -306 241 -65 11 -66 12 -29 57 109 135 143
320 88 480 -22 64 -75 151 -115 187 l-26 24 0 616 c0 403 -4 629 -11 654 -13
49 -73 115 -124 138 -38 18 -96 19 -1098 19 l-1057 0 -106 160 c-116 176 -144
203 -233 220 -82 15 -1013 12 -1073 -4z m1062 -135 c18 -5 57 -53 143 -181 64
-96 125 -181 134 -187 13 -10 247 -13 1089 -13 590 0 1080 -3 1089 -6 44 -17
45 -32 45 -624 0 -308 -2 -560 -5 -560 -2 0 -30 7 -62 15 -31 8 -89 15 -128
15 -39 0 -97 -7 -128 -15 -32 -8 -60 -15 -62 -15 -3 0 -5 141 -5 314 l0 314
-28 53 c-17 34 -44 65 -71 84 l-43 30 -1072 3 -1073 2 -98 148 c-113 171 -126
187 -180 215 -38 21 -55 22 -337 25 l-298 3 0 160 c0 96 4 168 11 180 25 47
43 48 564 48 270 -1 501 -4 515 -8z m-520 -534 c15 -7 71 -82 137 -182 78
-118 121 -174 140 -182 21 -9 286 -12 1096 -13 l1068 0 24 -25 25 -24 0 -351
0 -350 -45 -56 c-154 -188 -161 -431 -19 -624 29 -39 40 -62 32 -64 -7 -3 -36
-10 -65 -16 -108 -24 -235 -126 -288 -231 -31 -59 -55 -158 -55 -221 l0 -48
-1544 0 c-849 0 -1552 3 -1561 6 -46 18 -45 -9 -45 1196 0 1234 -3 1165 54
1188 35 15 1016 12 1046 -3z m2973 -1175 c70 -31 149 -111 183 -185 24 -52 28
-75 29 -147 0 -76 -3 -92 -32 -151 -122 -247 -452 -281 -615 -64 -50 67 -72
134 -71 220 1 157 94 283 251 342 55 20 195 12 255 -15z m292 -860 c66 -30
138 -102 167 -166 20 -45 23 -70 26 -214 l4 -162 -634 2 -633 3 1 160 c0 141
3 166 21 207 26 55 81 119 131 150 72 44 105 47 497 45 363 -2 371 -2 420 -25z"/>
<path d="M2747 3002 c-21 -23 -22 -71 -3 -98 14 -18 32 -19 455 -22 l441 -3
25 25 c30 30 32 65 5 94 -21 22 -21 22 -464 22 -416 0 -444 -1 -459 -18z"/>
<path d="M3042 2617 c-28 -30 -28 -68 1 -95 23 -22 29 -22 311 -22 l287 0 24
25 c30 30 31 54 4 89 l-20 26 -293 0 -293 0 -21 -23z"/>
<path d="M485 1805 c-25 -24 -25 -26 -25 -203 0 -166 2 -181 21 -206 l20 -26
499 0 c475 0 499 1 521 19 23 18 24 25 27 176 4 177 -1 218 -29 246 -18 18
-37 19 -514 19 l-496 0 -24 -25z m923 -207 l3 -88 -406 0 -405 0 0 90 0 90
403 -2 402 -3 3 -87z"/>
</g>
</svg>
